<svg xmlns="http://www.w3.org/2000/svg" viewBox="0 0 54 7" fill="none" height="12" color="currentColor"><path d="M0.637853 5.83647V2.9089H0V2.44161H0.637853V2.01404C0.637853 1.61217 0.740656 1.30376 0.943927 1.09348C1.14953 0.883201 1.43224 0.778061 1.79439 0.778061C2.00934 0.778061 2.19626 0.801425 2.35748 0.85049V1.3318C2.27336 1.30843 2.18691 1.29208 2.10046 1.2804C2.02336 1.27105 1.94626 1.26638 1.86916 1.26638C1.40654 1.26638 1.17757 1.50236 1.17757 1.97666V2.44161H2.33411V2.9089H1.17757V5.83647H0.637853Z" fill="#fff"/><path d="M3.09375 5.83643V2.44157H3.63347V3.03269C3.74095 2.82007 3.87646 2.65419 4.04235 2.5397C4.20824 2.42521 4.39982 2.36681 4.61945 2.36681C4.71992 2.36681 4.82039 2.37615 4.92085 2.39718V2.9369C4.86945 2.92989 4.81338 2.92522 4.75263 2.92054C4.69188 2.91587 4.63347 2.91353 4.5774 2.91353C4.32973 2.91353 4.1288 2.9883 3.9746 3.14017C3.82039 3.29204 3.70824 3.49297 3.63581 3.74531V5.83877H3.09609L3.09375 5.83643Z" fill="#fff"/><path d="M7.02215 5.91125C6.68337 5.91125 6.38898 5.83415 6.14132 5.68228C5.89365 5.53041 5.69506 5.31312 5.56655 5.05377C5.43104 4.78742 5.36328 4.48368 5.36328 4.14022C5.36328 3.79676 5.43104 3.48835 5.56655 3.22199C5.69506 2.96265 5.89365 2.74536 6.14132 2.59349C6.38898 2.44162 6.68337 2.36452 7.02215 2.36452H7.08991C7.4287 2.36452 7.72309 2.44162 7.97075 2.59349C8.21841 2.74536 8.41702 2.96265 8.54552 3.22199C8.68104 3.48835 8.74879 3.79442 8.74879 4.14022C8.74879 4.48601 8.68104 4.78742 8.54552 5.05377C8.41702 5.31312 8.21841 5.53041 7.97075 5.68228C7.72309 5.83415 7.4287 5.91125 7.08991 5.91125H7.02215ZM7.02449 5.41358H7.08524C7.42403 5.41358 7.69271 5.29676 7.89131 5.06545C8.08991 4.83414 8.18805 4.52573 8.18805 4.14022C8.18805 3.75471 8.08991 3.44396 7.89131 3.21265C7.69271 2.98134 7.42403 2.86686 7.08524 2.86686H7.02449C6.68571 2.86686 6.41701 2.98134 6.21841 3.21265C6.01982 3.44396 5.92169 3.75237 5.92169 4.14022C5.92169 4.52807 6.01982 4.83181 6.21841 5.06545C6.41701 5.29676 6.68571 5.41358 7.02449 5.41358Z" fill="#fff"/><path d="M9.52968 5.83643V2.44157H10.0694V3.07241C10.1932 2.85512 10.3498 2.68223 10.5414 2.55606C10.733 2.42989 10.9549 2.36681 11.2073 2.36681H11.275C11.8404 2.36681 12.2026 2.63783 12.3638 3.17989C12.4946 2.92989 12.6629 2.73129 12.8708 2.58643C13.0787 2.44157 13.3194 2.36681 13.5881 2.36681H13.6605C14.0437 2.36681 14.3334 2.49531 14.5367 2.74998C14.7376 3.00699 14.8381 3.37148 14.8381 3.84811V5.83877H14.2984V3.92755C14.2984 3.22194 14.039 2.86914 13.5227 2.86914H13.4619C13.2189 2.86914 13.0087 2.95092 12.8334 3.11213C12.6582 3.27335 12.5297 3.47895 12.4502 3.72662V5.83877H11.9105V3.92755C11.9105 3.22194 11.6535 2.86914 11.1395 2.86914H11.0741C10.8311 2.86914 10.6208 2.95092 10.4479 3.11213C10.2727 3.27335 10.1465 3.47895 10.0671 3.72662V5.83877H9.52734L9.52968 5.83643Z" fill="#fff"/><path d="M31.0508 0.224289H32.3685L34.6069 4.27335L36.8452 0.224289H38.1326V6.87849H37.0578V1.77803L35.0952 5.3084H34.0882L32.1255 1.77803V6.87849H31.0508V0.224289Z" fill="#fff"/><path d="M41.5969 6.99765C41.0992 6.99765 40.6623 6.88784 40.2861 6.66821C39.9123 6.45092 39.6062 6.1355 39.4053 5.75232C39.195 5.36214 39.0898 4.91588 39.0898 4.41121C39.0898 3.90653 39.1926 3.44859 39.3983 3.05606C39.6039 2.66354 39.8889 2.35513 40.2557 2.13317C40.6226 1.91121 41.0431 1.80139 41.5174 1.80139C41.9917 1.80139 42.3959 1.91354 42.737 2.1355C43.0782 2.3598 43.3398 2.67055 43.5244 3.07476C43.709 3.47663 43.8001 3.94859 43.8001 4.49064V4.78503H40.1553C40.223 5.19158 40.3866 5.50934 40.6483 5.74298C40.9099 5.97662 41.2394 6.09345 41.6389 6.09345C41.959 6.09345 42.2347 6.04672 42.466 5.95092C42.6973 5.85513 42.9146 5.7126 43.1179 5.51868L43.688 6.21728C43.1202 6.73831 42.4263 6.99765 41.6015 6.99765H41.5969ZM42.3796 3.05139C42.1553 2.82242 41.8609 2.7056 41.4964 2.7056C41.1319 2.7056 40.8445 2.82242 40.6062 3.0584C40.3679 3.29204 40.216 3.60747 40.1529 4.00466H42.7674C42.7347 3.59812 42.6085 3.28036 42.3819 3.05139H42.3796Z" fill="#fff"/><path d="M45.1016 2.80135H44.1133V1.92284H45.1016V0.469574H46.1367V1.92284H47.639V2.80135H46.1367V5.03032C46.1367 5.40182 46.1997 5.66583 46.3259 5.82471C46.4521 5.98359 46.6694 6.06303 46.9778 6.06303C47.0923 6.06303 47.2091 6.05836 47.3236 6.04668C47.4194 6.03499 47.5222 6.02097 47.6366 6.00228V6.87144C47.5058 6.90883 47.375 6.93686 47.2394 6.95789C47.0852 6.98125 46.931 6.9906 46.7768 6.9906C45.6577 6.9906 45.0993 6.37845 45.0993 5.15649V2.80369L45.1016 2.80135Z" fill="#fff"/><path d="M53.037 6.87849H52.0207V6.18457C51.8454 6.43924 51.6071 6.64718 51.3314 6.78503C51.0534 6.92522 50.7356 6.99532 50.3805 6.99765C49.9436 6.99765 49.5557 6.8855 49.2193 6.66354C48.8828 6.43924 48.6165 6.13317 48.4225 5.74064C48.2286 5.34812 48.1328 4.90186 48.1328 4.39719C48.1328 3.89251 48.2309 3.44158 48.4272 3.05139C48.6235 2.6612 48.8945 2.35513 49.2426 2.13317C49.5884 1.91121 49.988 1.80139 50.4389 1.80139C50.7777 1.80139 51.0814 1.86681 51.3524 1.99765C51.6188 2.12616 51.8478 2.31775 52.023 2.55607V1.91822H53.0394V6.87615L53.037 6.87849ZM52.002 3.65653C51.8922 3.37382 51.7169 3.15186 51.4763 2.98831C51.238 2.82475 50.9599 2.74298 50.6468 2.74298C50.2029 2.74298 49.8501 2.89251 49.5861 3.18924C49.3221 3.48597 49.1912 3.89018 49.1912 4.39719C49.1912 4.9042 49.3174 5.31074 49.5721 5.6098C49.8267 5.90653 50.1702 6.05606 50.6048 6.05606C50.9249 6.05606 51.2099 5.97429 51.4599 5.8084C51.7052 5.64952 51.8945 5.41588 52.002 5.14251V3.65419V3.65653Z" fill="#fff"/><path d="M25.8592 0C24.9947 0 24.3195 0.649532 23.7097 1.47664C22.8685 0.406542 22.1676 0 21.3265 0C19.6139 0 18.3008 2.23131 18.3008 4.59112C18.3008 6.06775 19.0157 7 20.212 7C21.0742 7 21.6933 6.59346 22.7938 4.66822C22.7938 4.66822 23.2517 3.85747 23.5695 3.29906C23.6793 3.47663 23.7961 3.67056 23.9199 3.87617L24.4363 4.74533C25.4433 6.4299 26.0041 7 27.0181 7C28.184 7 28.8335 6.05608 28.8335 4.54673C28.8335 2.07477 27.49 0 25.8592 0ZM21.955 4.1472C21.0625 5.54673 20.7541 5.85981 20.2564 5.85981C19.7587 5.85981 19.441 5.41121 19.441 4.60981C19.441 2.89719 20.2961 1.14486 21.3148 1.14486C21.8662 1.14486 22.3265 1.46262 23.0344 2.4743C22.3639 3.50233 21.9573 4.1472 21.9573 4.1472H21.955ZM25.3265 3.96963L24.7097 2.93925C24.5414 2.66822 24.3826 2.41589 24.2284 2.18925C24.7844 1.32944 25.2447 0.901869 25.7891 0.901869C26.9246 0.901869 27.8312 2.57243 27.8312 4.62383C27.8312 5.40654 27.5741 5.85981 27.0438 5.85981C26.5134 5.85981 26.2914 5.52336 25.3265 3.96963Z" fill="#fff"/></svg>