<svg xmlns="http://www.w3.org/2000/svg" viewBox="0 0 16 16" fill="none" width="16" height="16" color="var(--icon-secondary)" class="size-[16px] text-[var(--icon-secondary)]"><path d="M3.45734 8.8606C3.98122 8.58202 4.57636 8.46514 5.16672 8.52455C5.75702 8.584 6.31637 8.8171 6.77418 9.19445C7.23199 9.57182 7.56761 10.0763 7.73864 10.6444C7.90965 11.2125 7.90844 11.8185 7.73506 12.3859C7.56163 12.9533 7.22383 13.4566 6.76445 13.832C6.30502 14.2074 5.74454 14.4384 5.15398 14.4954L2.8314 14.7191C2.56897 14.7447 2.30486 14.6918 2.07245 14.5672C1.83971 14.4425 1.64913 14.2514 1.52509 14.0182C1.4011 13.7852 1.34936 13.5202 1.37593 13.2576C1.40182 13.0023 1.50129 12.7606 1.66129 12.5603C1.82874 12.3431 1.90648 12.0699 1.8801 11.7969C1.82321 11.2063 1.9424 10.6121 2.22315 10.0894C2.50391 9.56685 2.93359 9.13919 3.45734 8.8606ZM3.21569 11.7833C3.24359 12.3549 3.06713 12.9192 2.71623 13.3744C2.71163 13.3803 2.70702 13.3863 2.70223 13.3921L5.02611 13.1682C5.35412 13.1365 5.66552 13.0086 5.92071 12.8001C6.17592 12.5915 6.3637 12.3118 6.46008 11.9966C6.55641 11.6815 6.55728 11.3446 6.46235 11.029C6.36734 10.7134 6.18056 10.4329 5.92622 10.2232C5.67186 10.0136 5.36085 9.8838 5.03287 9.85079C4.70496 9.81783 4.37452 9.88301 4.08354 10.0377C3.79255 10.1925 3.5538 10.4302 3.39781 10.7206C3.24189 11.0109 3.17569 11.341 3.20729 11.669L3.21569 11.7833Z" fill="currentColor"/><path d="M13.3477 1.27466C13.8492 1.27466 14.3305 1.47412 14.685 1.82869C15.0393 2.18324 15.2384 2.66401 15.2384 3.16528C15.2384 3.66655 15.0393 4.14733 14.685 4.50187L7.33407 11.8515L6.43954 10.8606L13.7416 3.55916C13.8461 3.45466 13.905 3.31311 13.905 3.16528C13.905 3.01746 13.8461 2.87591 13.7416 2.7714C13.6371 2.6669 13.4955 2.60799 13.3477 2.60799C13.2001 2.60803 13.0583 2.66694 12.9539 2.7714L5.6928 10.0325L4.79957 9.04093L12.0112 1.82869C12.3656 1.47416 12.8464 1.2747 13.3477 1.27466Z" fill="currentColor"/><path d="M12.2603 11.0332L12.6816 12.1715L13.8199 12.5927L12.6816 13.014L12.2603 14.1523L11.8391 13.014L10.7008 12.5927L11.8391 12.1715L12.2603 11.0332Z" fill="currentColor" stroke="currentColor" stroke-width="0.8316" stroke-linecap="round" stroke-linejoin="round"/><path d="M4.19513 1.27466L4.82098 2.966L6.51233 3.59186L4.82098 4.21771L4.19513 5.90906L3.56928 4.21771L1.87793 3.59186L3.56928 2.966L4.19513 1.27466Z" stroke="currentColor" stroke-width="1.1" stroke-linecap="round" stroke-linejoin="round"/></svg>