<svg viewBox="0 0 18 18" fill="none" xmlns="http://www.w3.org/2000/svg" width="18" height="18" color="var(--icon-primary)"><path d="M8.725 15.0001H3C2.60218 15.0001 2.22064 14.842 1.93934 14.5607C1.65804 14.2794 1.5 13.8979 1.5 13.5001V3.75007C1.5 3.35225 1.65804 2.97072 1.93934 2.68941C2.22064 2.40811 2.60218 2.25007 3 2.25007H5.985C6.23586 2.24761 6.48334 2.30811 6.70477 2.42604C6.92621 2.54396 7.11453 2.71554 7.2525 2.92507L7.7475 3.82507C7.88408 4.03247 8.07002 4.20271 8.28863 4.32052C8.50723 4.43834 8.75167 4.50003 9 4.50007H15C15.3978 4.50007 15.7794 4.65811 16.0607 4.93941C16.342 5.22072 16.5 5.60225 16.5 6.00007V8.47507" stroke="currentColor" stroke-width="1.5" stroke-linecap="round" stroke-linejoin="round"/><path d="M14.25 11V15.5" stroke="currentColor" stroke-width="1.5" stroke-linecap="round" stroke-linejoin="round"/><path d="M12 13.25H16.5" stroke="currentColor" stroke-width="1.5" stroke-linecap="round" stroke-linejoin="round"/></svg>