<svg xmlns="http://www.w3.org/2000/svg" width="20" height="20" fill="none" viewBox="0 0 18 18"><g filter="url(#a)"><path fill="url(#b)" d="M15.23 7.169A6.23 6.23 0 0 0 8.848.939c-3.375.08-6.098 2.889-6.08 6.263a6.2 6.2 0 0 0 2.392 4.872 2.77 2.77 0 0 1 1.07 2.19c0 .286.232.519.519.519h4.499a.52.52 0 0 0 .52-.52 2.78 2.78 0 0 1 1.078-2.193A6.2 6.2 0 0 0 15.23 7.17"/></g><path stroke="#5F5F5F" stroke-width=".91" d="M8.86 1.394a5.8 5.8 0 0 1 1.982.3l.27.098a5.78 5.78 0 0 1 3.091 2.87l.118.264c.3.71.454 1.472.453 2.242v.001a5.75 5.75 0 0 1-.443 2.229l-.135.298a5.75 5.75 0 0 1-1.628 2.014 3.2 3.2 0 0 0-.837.968l-.085.163a3.2 3.2 0 0 0-.333 1.422l-.005.026a.06.06 0 0 1-.059.039H6.75a.07.07 0 0 1-.06-.04l-.004-.025c0-.43-.085-.855-.251-1.25l-.077-.168a3.2 3.2 0 0 0-.776-1.014l-.142-.117a5.7 5.7 0 0 1-1.475-1.713l-.152-.288a5.75 5.75 0 0 1-.578-2.186l-.01-.326V7.2l.005-.291c.132-2.9 2.445-5.286 5.338-5.501z"/><path stroke="#ACACAC" stroke-linecap="round" stroke-linejoin="round" stroke-width="1.231" d="M9.624 5.09 8.08 6.813a.406.406 0 0 0 .23.67l1.51.275a.406.406 0 0 1 .198.703l-1.917 1.708"/><path stroke="#5F5F5F" stroke-linecap="round" stroke-width=".91" d="M7.153 15.937h3.693"/><defs><linearGradient id="b" x1="8.999" x2="8.999" y1="-.448" y2="15.649" gradientUnits="userSpaceOnUse"><stop stop-color="#272728" stop-opacity="0"/><stop offset="1" stop-color="#fff" stop-opacity=".16"/></linearGradient><filter id="a" width="12.997" height="14.382" x="2.77" y=".937" color-interpolation-filters="sRGB" filterUnits="userSpaceOnUse"><feFlood flood-opacity="0" result="BackgroundImageFix"/><feBlend in="SourceGraphic" in2="BackgroundImageFix" result="shape"/><feColorMatrix in="SourceAlpha" result="hardAlpha" values="0 0 0 0 0 0 0 0 0 0 0 0 0 0 0 0 0 0 127 0"/><feOffset dx="1.073" dy="1.073"/><feGaussianBlur stdDeviation=".268"/><feComposite in2="hardAlpha" k2="-1" k3="1" operator="arithmetic"/><feColorMatrix values="0 0 0 0 1 0 0 0 0 1 0 0 0 0 1 0 0 0 0.12 0"/><feBlend in2="shape" result="effect1_innerShadow_6414_3796"/></filter></defs></svg>
