<svg xmlns="http://www.w3.org/2000/svg" width="20" height="20" fill="none" viewBox="0 0 18 18"><g filter="url(#a)"><path fill="url(#b)" d="M2 4.7A2.7 2.7 0 0 1 4.7 2h8.6A2.7 2.7 0 0 1 16 4.7v8.6a2.7 2.7 0 0 1-2.7 2.7H4.7A2.7 2.7 0 0 1 2 13.3z"/></g><path stroke="#5F5F5F" stroke-width=".857" d="M2.429 4.7A2.27 2.27 0 0 1 4.7 2.429h8.6A2.27 2.27 0 0 1 15.571 4.7v8.6a2.27 2.27 0 0 1-2.271 2.271H4.7A2.27 2.27 0 0 1 2.429 13.3z"/><path stroke="#ACACAC" stroke-linecap="round" stroke-linejoin="round" stroke-width="1.2" d="M9.242 5.707a1 1 0 0 1 1.414 0v0a1 1 0 0 1 0 1.414l-3.535 3.536H5.707V9.243zM8 12h4"/><defs><linearGradient id="b" x1="9" x2="9" y1="2" y2="16" gradientUnits="userSpaceOnUse"><stop stop-color="#272728" stop-opacity="0"/><stop offset="1" stop-color="#fff" stop-opacity=".16"/></linearGradient><filter id="a" width="15" height="15" x="1.5" y="1.5" color-interpolation-filters="sRGB" filterUnits="userSpaceOnUse"><feFlood flood-opacity="0" result="BackgroundImageFix"/><feBlend in="SourceGraphic" in2="BackgroundImageFix" result="shape"/><feColorMatrix in="SourceAlpha" result="hardAlpha" values="0 0 0 0 0 0 0 0 0 0 0 0 0 0 0 0 0 0 127 0"/><feOffset dx="1" dy="1"/><feGaussianBlur stdDeviation=".25"/><feComposite in2="hardAlpha" k2="-1" k3="1" operator="arithmetic"/><feColorMatrix values="0 0 0 0 1 0 0 0 0 1 0 0 0 0 1 0 0 0 0.12 0"/><feBlend in2="shape" result="effect1_innerShadow"/><feColorMatrix in="SourceAlpha" result="hardAlpha" values="0 0 0 0 0 0 0 0 0 0 0 0 0 0 0 0 0 0 127 0"/><feOffset dx="-1" dy="-1"/><feGaussianBlur stdDeviation=".25"/><feComposite in2="hardAlpha" k2="-1" k3="1" operator="arithmetic"/><feColorMatrix values="0 0 0 0 0 0 0 0 0 0 0 0 0 0 0 0 0 0 0.16 0"/><feBlend in2="effect1_innerShadow" result="effect2_innerShadow"/></filter></defs></svg>
