<svg width="161" height="183" viewBox="0 0 161 183" fill="none" xmlns="http://www.w3.org/2000/svg">
<path d="M79.2397 0C84.9682 0.332137 89.0902 1.67435 92.4719 6.6636C94.0963 9.06225 94.948 11.8998 94.9157 14.7963C94.8941 24.92 86.6824 26.7385 80.6772 33.0265C77.1266 36.7483 74.478 41.5373 73.6011 46.6189C72.1169 55.2103 73.1016 62.4551 78.0214 69.7025C85.1155 80.0038 97.9344 84.7036 110.002 81.4254C115.716 79.9006 120.449 75.3132 127.453 77.0796C139.633 80.1508 137.947 90.1516 139.798 98.3256C140.581 101.754 141.987 105.01 143.945 107.932C149.454 116.088 163.366 119.995 160.663 132.364C159.014 139.913 150.691 146.125 142.82 143.896C131.112 140.58 132.481 132.204 130.587 122.885C129.933 119.759 128.758 116.765 127.112 114.028C123.105 107.479 116.683 102.768 109.237 100.908C101.589 99.0513 93.5213 100.341 86.8333 104.488C80.1849 108.628 75.4842 115.27 73.7916 122.917C71.3694 133.439 74.345 144.771 82.8766 151.615C89.8736 157.229 96.7772 160.904 94.4269 171.487C93.4674 175.791 90.348 178.915 86.5997 181.158C85.6222 181.568 84.616 181.906 83.5881 182.168C78.1328 183.602 72.886 181.898 69.418 177.517C65.1307 172.103 66.0183 165.923 64.363 159.694C60.0825 143.575 42.8706 134.533 27.1321 139.851C24.0131 140.903 21.1665 142.631 18.0044 143.557C10.3867 145.874 2.46824 141.219 0.492036 133.541C-2.37111 122.418 7.71907 111.968 18.8838 115.652C22.2403 116.669 25.6213 119.067 29.0048 119.881C50.9529 125.169 70.2302 105.854 64.6167 83.8392C62.628 76.1385 57.6582 69.5454 50.8034 65.5137C43.8927 61.5241 34.6089 60.5557 27.0437 63.2531C24.0318 64.3272 20.6602 66.3667 17.5749 67.1741C13.96 68.0968 10.1258 67.5206 6.94102 65.5763C-4.74334 58.4688 -0.731295 38.8788 13.2843 38.4963C19.5896 38.2555 24.4329 42.1264 30.4988 43.4834C44.8055 47.069 61.7701 36.6376 64.6707 22.1213C67.0353 10.2715 64.7641 3.36631 79.2397 0Z" fill="#FEFEFE"/>
<path d="M143.514 38.5711C151.456 37.0782 159.111 42.2993 160.62 50.2415C162.13 58.1837 156.926 65.8494 148.987 67.3768C141.027 68.9088 133.333 63.6848 131.82 55.7182C130.307 47.7516 135.543 40.0682 143.514 38.5711Z" fill="#FEFEFE"/>
</svg>
