<svg xmlns="http://www.w3.org/2000/svg" width="20" height="20" fill="none" viewBox="0 0 18 18"><rect width="13.14" height="13.14" x="2.43" y="2.43" fill="url(#a)" stroke="#5F5F5F" stroke-width=".86" rx="2.37"/><path stroke="#ACACAC" stroke-linecap="round" stroke-linejoin="round" d="m8.479 10.37-1.831 1.835m1.83 0H6.282a.73.73 0 0 1-.732-.734V6.334A.735.735 0 0 1 6.28 5.6h5.128a.73.73 0 0 1 .732.734v2.385"/><path stroke="#ACACAC" stroke-linecap="round" stroke-linejoin="round" d="M10.131 12.6q.05 0 .092-.028l2.153-1.348a.366.366 0 0 0 0-.622l-2.152-1.349a.183.183 0 0 0-.28.156v3.008a.183.183 0 0 0 .187.183"/><circle cx="8" cy="8" r=".5" fill="#7F7F7F" stroke="#ACACAC"/><defs><linearGradient id="a" x1="9" x2="9" y1="2" y2="16" gradientUnits="userSpaceOnUse"><stop stop-color="#272728" stop-opacity="0"/><stop offset="1" stop-color="#fff" stop-opacity=".16"/></linearGradient></defs></svg>
