<svg xmlns="http://www.w3.org/2000/svg" xmlns:xlink="http://www.w3.org/1999/xlink" viewBox="0 0 100 100" width="100" height="100" preserveAspectRatio="xMidYMid meet" style="width: 100%; height: 100%; transform: translate3d(0px, 0px, 0px); content-visibility: visible;"><defs><clipPath id="__lottie_element_14"><rect width="100" height="100" x="0" y="0"/></clipPath><radialGradient id="__lottie_element_24" spreadMethod="pad" gradientUnits="userSpaceOnUse" cx="-10.151839256286621" cy="-11.76507568359375" r="48.415934722459724" fx="-10.151839256286621" fy="-11.76507568359375"><stop offset="26%" stop-color="rgb(9,91,255)"/><stop offset="63%" stop-color="rgb(43,141,250)"/><stop offset="100%" stop-color="rgb(77,191,246)"/></radialGradient></defs><g clip-path="url(#__lottie_element_14)"><g transform="matrix(0.9563263654708862,-0.2612381875514984,0.2612381875514984,0.9563263654708862,48.880001068115234,50.16299819946289)" opacity="1" style="display: block;"><g opacity="1" transform="matrix(1,0,0,1,1.1200000047683716,-0.16300000250339508)"><path fill="url(#__lottie_element_24)" fill-opacity="1" d=" M36.284000396728516,-17.348276138305664 C36.284000396728516,-17.348276138305664 36.284000396728516,17.348276138305664 36.284000396728516,17.348276138305664 C36.284000396728516,27.79890251159668 27.79890251159668,36.284000396728516 17.348276138305664,36.284000396728516 C17.348276138305664,36.284000396728516 -17.348276138305664,36.284000396728516 -17.348276138305664,36.284000396728516 C-27.79890251159668,36.284000396728516 -36.284000396728516,27.79890251159668 -36.284000396728516,17.348276138305664 C-36.284000396728516,17.348276138305664 -36.284000396728516,-17.348276138305664 -36.284000396728516,-17.348276138305664 C-36.284000396728516,-27.79890251159668 -27.79890251159668,-36.284000396728516 -17.348276138305664,-36.284000396728516 C-17.348276138305664,-36.284000396728516 17.348276138305664,-36.284000396728516 17.348276138305664,-36.284000396728516 C27.79890251159668,-36.284000396728516 36.284000396728516,-27.79890251159668 36.284000396728516,-17.348276138305664z"/></g></g><g transform="matrix(0.9563263654708862,-0.2612381875514984,0.2612381875514984,0.9563263654708862,48.880001068115234,50.16299819946289)" opacity="0.8" style="display: block;"><g opacity="1" transform="matrix(1,0,0,1,1.1200000047683716,-0.16300000250339508)"><path stroke-linecap="butt" stroke-linejoin="miter" fill-opacity="0" stroke-miterlimit="4" stroke="rgb(82,157,251)" stroke-opacity="1" stroke-width="4" d=" M36.284000396728516,-17.348276138305664 C36.284000396728516,-17.348276138305664 36.284000396728516,17.348276138305664 36.284000396728516,17.348276138305664 C36.284000396728516,27.79890251159668 27.79890251159668,36.284000396728516 17.348276138305664,36.284000396728516 C17.348276138305664,36.284000396728516 -17.348276138305664,36.284000396728516 -17.348276138305664,36.284000396728516 C-27.79890251159668,36.284000396728516 -36.284000396728516,27.79890251159668 -36.284000396728516,17.348276138305664 C-36.284000396728516,17.348276138305664 -36.284000396728516,-17.348276138305664 -36.284000396728516,-17.348276138305664 C-36.284000396728516,-27.79890251159668 -27.79890251159668,-36.284000396728516 -17.348276138305664,-36.284000396728516 C-17.348276138305664,-36.284000396728516 17.348276138305664,-36.284000396728516 17.348276138305664,-36.284000396728516 C27.79890251159668,-36.284000396728516 36.284000396728516,-27.79890251159668 36.284000396728516,-17.348276138305664z"/></g></g><g transform="matrix(0.8681901097297668,-0.23716215789318085,0.23716215789318085,0.8681901097297668,48.880001068115234,50.16299819946289)" opacity="1" style="display: block;"><g opacity="1" transform="matrix(1,0,0,1,1.1200000047683716,-0.16300000250339508)"><path stroke-linecap="butt" stroke-linejoin="miter" fill-opacity="0" stroke-miterlimit="4" stroke="rgb(83,151,255)" stroke-opacity="1" stroke-width="2" d=" M36.284000396728516,-17.348276138305664 C36.284000396728516,-17.348276138305664 36.284000396728516,17.348276138305664 36.284000396728516,17.348276138305664 C36.284000396728516,27.79890251159668 27.79890251159668,36.284000396728516 17.348276138305664,36.284000396728516 C17.348276138305664,36.284000396728516 -17.348276138305664,36.284000396728516 -17.348276138305664,36.284000396728516 C-27.79890251159668,36.284000396728516 -36.284000396728516,27.79890251159668 -36.284000396728516,17.348276138305664 C-36.284000396728516,17.348276138305664 -36.284000396728516,-17.348276138305664 -36.284000396728516,-17.348276138305664 C-36.284000396728516,-27.79890251159668 -27.79890251159668,-36.284000396728516 -17.348276138305664,-36.284000396728516 C-17.348276138305664,-36.284000396728516 17.348276138305664,-36.284000396728516 17.348276138305664,-36.284000396728516 C27.79890251159668,-36.284000396728516 36.284000396728516,-27.79890251159668 36.284000396728516,-17.348276138305664z"/></g></g></g></svg>