<svg xmlns="http://www.w3.org/2000/svg" viewBox="0 0 18 18" fill="none" width="18" height="18" color="currentColor"><g clip-path="url(#dbd30b90f4227785d596690ee04728b10)"><path d="M9 12.75C11.0711 12.75 12.75 11.0711 12.75 9C12.75 6.92893 11.0711 5.25 9 5.25C6.92893 5.25 5.25 6.92893 5.25 9C5.25 11.0711 6.92893 12.75 9 12.75Z" stroke="currentColor" stroke-width="1.5"/><path d="M11.395 16.1091C9.8439 16.6303 8.15607 16.6303 6.60495 16.1091M16.1091 6.60495C16.6303 8.15607 16.6303 9.84382 16.1091 11.395M6.60498 1.89093C8.15615 1.36968 9.8439 1.36969 11.3951 1.89094M1.89094 11.395C1.36969 9.8439 1.36968 8.15616 1.89094 6.60498" stroke="currentColor" stroke-width="1.5" stroke-linecap="round" stroke-linejoin="round"/></g><defs><clipPath id="dbd30b90f4227785d596690ee04728b10"><rect width="18" height="18" fill="white"/></clipPath></defs></svg>