<svg width="1920" height="1080" viewBox="0 0 1920 1080" fill="none" xmlns="http://www.w3.org/2000/svg">
<g clip-path="url(#clip0_775_2001)">
<rect width="1440" height="1620" transform="matrix(0 -1 1 0 331 1635)" fill="url(#paint0_radial_775_2001)"/>
<g filter="url(#filter0_f_775_2001)">
<path d="M1706.23 499.916C1860.9 303.884 1771.11 -38.1472 1505.68 -264.033C1240.25 -489.919 899.7 -514.122 745.036 -318.09C590.373 -122.059 680.165 219.972 945.592 445.858C1211.02 671.744 1551.57 695.947 1706.23 499.916Z" fill="white"/>
<path d="M1396.55 207.207C1470.71 113.224 1406.58 -68.6887 1253.34 -199.106C1100.09 -329.524 915.748 -359.059 841.598 -265.076C767.448 -171.093 831.568 10.8199 984.815 141.237C1138.06 271.655 1322.4 301.191 1396.55 207.207Z" fill="#23AEE0"/>
<path d="M1134.93 992.845C1433.9 1055.9 1707.72 957.846 1746.54 773.83C1785.35 589.815 1574.45 389.523 1275.48 326.466C976.511 263.409 702.686 361.465 663.875 545.481C625.063 729.496 835.962 929.788 1134.93 992.845Z" fill="white"/>
<path d="M1182.82 1063.16C1343.16 1297.52 1589.75 1407.73 1733.58 1309.32C1877.42 1210.91 1864.04 941.146 1703.7 706.786C1543.35 472.426 1296.77 362.216 1152.93 460.625C1009.09 559.034 1022.48 828.797 1182.82 1063.16Z" fill="#3874FF"/>
<path d="M1219 953.046C1381.16 788.671 1361.98 493.772 1176.16 294.37C990.336 94.9676 708.24 66.5724 546.08 230.947C383.919 395.322 403.101 690.222 588.924 889.624C774.747 1089.03 1056.84 1117.42 1219 953.046Z" fill="#93C5F7"/>
<path d="M1768.98 788.537C1788.34 759.735 1555.91 557.578 1249.83 337.007C943.741 116.436 679.914 -39.0234 660.552 -10.2212C641.189 18.5809 873.624 220.738 1179.71 441.309C1485.79 661.88 1749.62 817.34 1768.98 788.537Z" fill="#8FE1FF"/>
<path d="M360.326 1499.95C596.371 1549.74 843.261 1326.78 911.771 1001.96C980.28 677.136 844.466 373.457 608.421 323.672C372.377 273.886 125.486 496.847 56.9766 821.668C-11.5332 1146.49 124.281 1450.17 360.326 1499.95Z" fill="#71CEF0"/>
<path d="M254.732 901.596C471.365 915.007 659.149 762.503 674.158 560.969C689.168 359.435 525.719 185.187 309.086 171.776C92.4524 158.364 -95.3311 310.868 -110.34 512.402C-125.35 713.937 38.0987 888.184 254.732 901.596Z" fill="#33EBFF"/>
<path d="M1795.56 749.233C1809.51 728.48 1572.69 532.847 1266.61 312.276C960.522 91.7052 701.082 -70.2788 687.13 -49.5251C673.178 -28.7714 909.999 166.861 1216.08 387.432C1522.17 608.003 1781.61 769.987 1795.56 749.233Z" fill="#7ADCFF"/>
<path d="M-151.997 871.686C-27.2452 1005.01 247.459 963.686 461.572 779.391C675.685 595.097 748.127 337.617 623.376 204.295C498.624 70.9734 223.92 112.295 9.80702 296.59C-204.306 480.885 -276.748 738.364 -151.997 871.686Z" fill="#3693B5"/>
<path d="M631.747 1963.27C859.53 2206.7 1361.12 2131.25 1752.07 1794.74C2143.03 1458.23 2275.31 988.094 2047.52 744.662C1819.74 501.231 1318.15 576.685 927.198 913.195C536.242 1249.7 403.964 1719.84 631.747 1963.27Z" fill="url(#paint1_radial_775_2001)"/>
<path d="M570.776 1381.68C989.796 1440.42 1339.92 1416.63 1352.8 1328.56C1365.68 1240.49 1036.44 1121.49 617.415 1062.75C198.395 1004.02 -151.729 1027.8 -164.608 1115.87C-177.488 1203.94 151.755 1322.95 570.776 1381.68Z" fill="#93CFF7"/>
<path d="M1710.87 855.004C1773.78 829.713 1768.96 651.951 1700.11 457.96C1631.26 263.97 1524.45 127.211 1461.55 152.501C1398.64 177.791 1403.46 355.554 1472.31 549.544C1541.16 743.535 1647.97 880.294 1710.87 855.004Z" fill="#D1F3FF"/>
</g>
<g filter="url(#filter1_n_775_2001)">
<path d="M326.057 1687.49V127.494H1926.06V1687.49H326.057Z" fill="white" fill-opacity="0.02"/>
</g>
</g>
<rect width="1920" height="1080" fill="url(#paint2_radial_775_2001)"/>
<defs>
<filter id="filter0_f_775_2001" x="-453.074" y="-690.641" width="2852.12" height="3036.68" filterUnits="userSpaceOnUse" color-interpolation-filters="sRGB">
<feFlood flood-opacity="0" result="BackgroundImageFix"/>
<feBlend mode="normal" in="SourceGraphic" in2="BackgroundImageFix" result="shape"/>
<feGaussianBlur stdDeviation="120" result="effect1_foregroundBlur_775_2001"/>
</filter>
<filter id="filter1_n_775_2001" x="326.057" y="127.494" width="1600" height="1560" filterUnits="userSpaceOnUse" color-interpolation-filters="sRGB">
<feFlood flood-opacity="0" result="BackgroundImageFix"/>
<feBlend mode="normal" in="SourceGraphic" in2="BackgroundImageFix" result="shape"/>
<feTurbulence type="fractalNoise" baseFrequency="0.138888880610466 0.138888880610466" stitchTiles="stitch" numOctaves="3" result="noise" seed="3226" />
<feColorMatrix in="noise" type="luminanceToAlpha" result="alphaNoise" />
<feComponentTransfer in="alphaNoise" result="coloredNoise1">
<feFuncA type="discrete" tableValues="0 0 0 0 0 0 0 0 0 0 0 0 0 0 0 0 0 0 1 1 1 1 1 1 1 1 1 1 1 1 1 0 0 0 0 0 0 0 0 0 0 0 0 0 0 0 0 0 0 0 0 0 0 0 0 0 0 0 0 0 0 0 0 0 0 0 0 0 0 0 0 0 0 0 0 0 0 0 0 0 0 0 0 0 0 0 0 0 0 0 0 0 0 0 0 0 0 0 0 0 "/>
</feComponentTransfer>
<feComposite operator="in" in2="shape" in="coloredNoise1" result="noise1Clipped" />
<feComponentTransfer in="alphaNoise" result="coloredNoise2">
<feFuncA type="discrete" tableValues="0 0 0 0 0 0 0 0 0 0 0 0 0 0 0 0 0 0 0 0 0 0 0 0 0 0 0 0 0 0 0 0 0 0 0 0 0 0 0 0 0 0 0 0 0 0 0 0 0 0 0 0 0 0 0 0 0 0 0 0 0 0 0 0 0 0 0 0 0 1 1 1 1 1 1 1 1 1 1 1 1 1 0 0 0 0 0 0 0 0 0 0 0 0 0 0 0 0 0 0 "/>
</feComponentTransfer>
<feComposite operator="in" in2="shape" in="coloredNoise2" result="noise2Clipped" />
<feFlood flood-color="#E0CFCA" result="color1Flood" />
<feComposite operator="in" in2="noise1Clipped" in="color1Flood" result="color1" />
<feFlood flood-color="rgba(255, 255, 255, 0.25)" result="color2Flood" />
<feComposite operator="in" in2="noise2Clipped" in="color2Flood" result="color2" />
<feMerge result="effect1_noise_775_2001">
<feMergeNode in="shape" />
<feMergeNode in="color1" />
<feMergeNode in="color2" />
</feMerge>
</filter>
<radialGradient id="paint0_radial_775_2001" cx="0" cy="0" r="1" gradientTransform="matrix(-1163.63 -703.5 282.376 -1868.26 1275.75 1896.75)" gradientUnits="userSpaceOnUse">
<stop offset="0.307692" stop-color="white" stop-opacity="0"/>
<stop offset="0.826923" stop-color="white"/>
</radialGradient>
<radialGradient id="paint1_radial_775_2001" cx="0" cy="0" r="1" gradientTransform="matrix(707.894 -609.309 412.442 440.778 1339.63 1353.97)" gradientUnits="userSpaceOnUse">
<stop stop-color="#2B76BC"/>
<stop offset="1" stop-color="#008CBF"/>
</radialGradient>
<radialGradient id="paint2_radial_775_2001" cx="0" cy="0" r="1" gradientUnits="userSpaceOnUse" gradientTransform="translate(1701 1264.5) rotate(-163.181) scale(1620.84 1301.17)">
<stop offset="0.307692" stop-color="white" stop-opacity="0"/>
<stop offset="0.826923" stop-color="#FAFAFA"/>
</radialGradient>
<clipPath id="clip0_775_2001">
<rect width="1440" height="1620" fill="white" transform="matrix(0 -1 1 0 331 1635)"/>
</clipPath>
</defs>
</svg>
