<svg width="75" height="16" viewBox="0 0 75 16" fill="none" xmlns="http://www.w3.org/2000/svg">
<path d="M0 0.391305H4.28261L10.8478 11.8478C10.8188 11.5 10.7971 11.1377 10.7826 10.7609C10.7681 10.3696 10.7609 9.97102 10.7609 9.56522V0.391305H13.6087V15.6087H9.86956L2.76087 3.19565C2.80435 3.58696 2.82609 3.95652 2.82609 4.30435C2.84058 4.65217 2.84783 4.99275 2.84783 5.32609V15.6087H0V0.391305Z" fill="#0A0A0A"/>
<path d="M16.9625 0.391305H27.5494V2.80435H19.8103V6.52174H27.2233V8.95652H19.8103V13.1957H27.8755V15.6087H16.9625V0.391305Z" fill="#0A0A0A"/>
<path d="M36.508 16C35.2181 16 34.1094 15.7609 33.1819 15.2826C32.2544 14.7899 31.5442 14.0797 31.0515 13.1522C30.5587 12.2246 30.3123 11.1087 30.3123 9.80435V0.391305H33.1819V9.36957C33.1819 10.3116 33.3051 11.0942 33.5515 11.7174C33.8123 12.3406 34.1891 12.8116 34.6819 13.1304C35.1746 13.4348 35.7833 13.587 36.508 13.587C37.5949 13.587 38.421 13.2319 38.9862 12.5217C39.5515 11.8116 39.8341 10.7609 39.8341 9.36957V0.391305H42.6819V9.80435C42.6819 11.7754 42.1384 13.3043 41.0515 14.3913C39.9645 15.4638 38.45 16 36.508 16Z" fill="#0A0A0A"/>
<path d="M45.8772 0.391305H52.6163C54.0946 0.391305 55.283 0.739131 56.1815 1.43478C57.0801 2.11594 57.5294 3.10145 57.5294 4.3913C57.5294 5.36232 57.2468 6.16667 56.6815 6.80435C56.1163 7.42754 55.4279 7.86232 54.6163 8.1087C55.4859 8.25362 56.1453 8.63044 56.5946 9.23913C57.0584 9.84783 57.2902 10.6449 57.2902 11.6304V15.6087H54.4207V11.8913C54.4207 10.9928 54.2323 10.3623 53.8555 10C53.4931 9.62319 52.8482 9.43478 51.9207 9.43478H48.725V15.6087H45.8772V0.391305ZM52.0729 7C52.6236 7 53.0873 6.92029 53.4642 6.76087C53.841 6.60145 54.1236 6.36957 54.312 6.06522C54.5004 5.76087 54.5946 5.37681 54.5946 4.91304C54.5946 4.21739 54.3772 3.69565 53.9424 3.34783C53.5221 2.98551 52.8989 2.80435 52.0729 2.80435H48.725V7H52.0729Z" fill="#0A0A0A"/>
<path d="M66.8583 16C65.4236 16 64.141 15.6884 63.0105 15.0652C61.8946 14.4275 61.0105 13.5072 60.3584 12.3043C59.7207 11.1015 59.4018 9.66667 59.4018 8C59.4018 6.4058 59.7207 5.00725 60.3584 3.80435C61.0105 2.58696 61.9018 1.65217 63.0323 1C64.1627 0.333333 65.4381 0 66.8583 0C68.2786 0 69.554 0.333333 70.6844 1C71.8294 1.66667 72.7279 2.6087 73.3801 3.82609C74.0468 5.02899 74.3801 6.42029 74.3801 8C74.3801 9.65217 74.054 11.087 73.4018 12.3043C72.7497 13.5072 71.8511 14.4275 70.7062 15.0652C69.5757 15.6884 68.2931 16 66.8583 16ZM66.8583 13.587C67.7569 13.587 68.554 13.3696 69.2497 12.9348C69.9453 12.5 70.4815 11.8623 70.8584 11.0217C71.2497 10.1812 71.4453 9.17391 71.4453 8C71.4453 6.88406 71.2497 5.9058 70.8584 5.06522C70.4815 4.21015 69.9453 3.55797 69.2497 3.1087C68.554 2.64493 67.7569 2.41304 66.8583 2.41304C65.9598 2.41304 65.1699 2.63768 64.4888 3.08696C63.8076 3.53623 63.2786 4.18841 62.9018 5.04348C62.525 5.88406 62.3366 6.86957 62.3366 8C62.3366 9.15942 62.525 10.1594 62.9018 11C63.2786 11.8406 63.8076 12.4855 64.4888 12.9348C65.1699 13.3696 65.9598 13.587 66.8583 13.587Z" fill="#0A0A0A"/>
</svg>
